<?xml version="1.0" standalone="yes"?>

<svg version="1.1" viewBox="0.0 0.0 621.3018372703413 722.5301837270341" fill="none" stroke="none" stroke-linecap="square" stroke-miterlimit="10" xmlns="http://www.w3.org/2000/svg" xmlns:xlink="http://www.w3.org/1999/xlink"><clipPath id="p.0"><path d="m0 0l621.3018 0l0 722.5302l-621.3018 0l0 -722.5302z" clip-rule="nonzero"></path></clipPath><g clip-path="url(#p.0)"><path fill="#000000" fill-opacity="0.0" d="m0 0l621.3018 0l0 722.5302l-621.3018 0z" fill-rule="nonzero"></path><path fill="#0b5394" d="m436.55643 165.13911l48.724426 -48.72442l48.724396 48.72442l-24.362213 0l0 503.59058l24.362213 0l-48.724396 48.724365l-48.724426 -48.724365l24.362213 0l0 -503.59058z" fill-rule="nonzero"></path><path stroke="#000000" stroke-width="1.0" stroke-linejoin="round" stroke-linecap="butt" d="m436.55643 165.13911l48.724426 -48.72442l48.724396 48.72442l-24.362213 0l0 503.59058l24.362213 0l-48.724396 48.724365l-48.724426 -48.724365l24.362213 0l0 -503.59058z" fill-rule="nonzero"></path><path fill="#cc0000" d="m0 231.4302l0 0c7.5341494E-14 119.51425 244.3051 219.37158 563.77185 230.43628l0 -50.56546l57.51947 95.36615l-57.51947 93.378235l0 -50.56543l0 0c-319.46674 -11.064697 -563.77185 -110.92203 -563.77185 -230.43625z" fill-rule="nonzero"></path><path fill="#a30000" d="m621.2913 87.61351l0 0c-297.7843 0 -553.69275 78.7045 -610.0595 187.62346l0 0c-35.089615 -67.80461 12.936695 -137.90393 130.96227 -191.15283c118.02559 -53.24891 293.71948 -84.08413 479.09723 -84.08413z" fill-rule="nonzero"></path><path fill="#000000" fill-opacity="0.0" d="m0 231.4302l0 0c7.5341494E-14 119.51425 244.3051 219.37158 563.77185 230.43628l0 -50.56546l57.51947 95.36615l-57.51947 93.378235l0 -50.56543l0 0c-319.46674 -11.064697 -563.77185 -110.92203 -563.77185 -230.43625l-1.5068299E-13 -87.613525l0 0c0 -127.81537 278.16162 -231.4302 621.2913 -231.4302l0 87.61351l0 0c-297.7843 0 -553.69275 78.7045 -610.0595 187.62346" fill-rule="nonzero"></path><path stroke="#000000" stroke-width="1.0" stroke-linejoin="round" stroke-linecap="butt" d="m0 231.4302l0 0c7.5341494E-14 119.51425 244.3051 219.37158 563.77185 230.43628l0 -50.56546l57.51947 95.36615l-57.51947 93.378235l0 -50.56543l0 0c-319.46674 -11.064697 -563.77185 -110.92203 -563.77185 -230.43625l-1.5068299E-13 -87.613525l0 0c0 -127.81537 278.16162 -231.4302 621.2913 -231.4302l0 87.61351l0 0c-297.7843 0 -553.69275 78.7045 -610.0595 187.62346" fill-rule="nonzero"></path></g></svg>

