<?xml version="1.0" standalone="yes"?>

<svg version="1.1" viewBox="0.0 0.0 960.0 720.0" fill="none" stroke="none" stroke-linecap="square" stroke-miterlimit="10" xmlns="http://www.w3.org/2000/svg" xmlns:xlink="http://www.w3.org/1999/xlink"><clipPath id="p.0"><path d="m0 0l960.0 0l0 720.0l-960.0 0l0 -720.0z" clip-rule="nonzero"></path></clipPath><g clip-path="url(#p.0)"><path fill="#000000" fill-opacity="0.0" d="m0 0l960.0 0l0 720.0l-960.0 0z" fill-rule="nonzero"></path><path fill="#ff0000" d="m328.9795 66.108154l212.01514 217.60187l217.58026 -212.03726l74.39496 76.35531l-217.58026 212.03728l212.01508 217.6019l-77.91028 75.925415l-212.01508 -217.60187l-217.58032 212.0373l-74.39494 -76.35535l217.5803 -212.03723l-212.01514 -217.60188z" fill-rule="nonzero"></path><path stroke="#000000" stroke-width="1.0" stroke-linejoin="round" stroke-linecap="butt" d="m328.9795 66.108154l212.01514 217.60187l217.58026 -212.03726l74.39496 76.35531l-217.58026 212.03728l212.01508 217.6019l-77.91028 75.925415l-212.01508 -217.60187l-217.58032 212.0373l-74.39494 -76.35535l217.5803 -212.03723l-212.01514 -217.60188z" fill-rule="nonzero"></path></g></svg>

